# AST/ASF file generated using VICON BodyLanguage
# -----------------------------------------------
:version 1.10
:name VICON
:units
  mass 1.0
  length 0.45
  angle deg
:documentation
   .ast/.asf automatically generated from VICON data using
   VICON BodyBuilder and BodyLanguage model FoxedUp or BRILLIANT.MOD
:root
   order TX TY TZ RX RY RZ
   axis XYZ
   position 0 0 0  
   orientation 0 0 0 
:bonedata
  begin
     id 1 
     name lhipjoint
     direction 0.576517 -0.752066 0.319413 
     length 2.45433 
     axis 0 0 0  XYZ
  end
  begin
     id 2 
     name lfemur
     direction 0.34202 -0.939693 0  
     length 7.54459  
     axis 0 0 20  XYZ
    dof rx ry rz
    limits (-160.0 20.0)
           (-70.0 70.0)
           (-60.0 70.0)
  end
  begin
     id 3 
     name ltibia
     direction 0.34202 -0.939693 0   
     length 7.73986   
     axis 0 0 20   XYZ
    dof rx
    limits (-10.0 170.0)
  end
  begin
     id 4 
     name lfoot
     direction 0.090693 -0.249177 0.964202   
     length 2.28437   
     axis -90 7.62852e-016 20   XYZ
    dof rx rz
    limits (-45.0 90.0)
           (-70.0 20.0)
  end
  begin
     id 5 
     name ltoes
     direction 1.5356e-011 -4.21928e-011 1   
     length 1.14243   
     axis -90 7.62852e-016 20   XYZ
    dof rx
    limits (-90.0 20.0)
  end
  begin
     id 6 
     name rhipjoint
     direction -0.573937 -0.753736 0.320122   
     length 2.44889  
     axis 0 0 0  XYZ 
  end
  begin
     id 7 
     name rfemur
     direction -0.34202 -0.939693 0   
     length 7.50166   
     axis 0 0 -20   XYZ
    dof rx ry rz
    limits (-160.0 20.0)
           (-70.0 70.0)
           (-70.0 60.0)
  end
  begin
     id 8 
     name rtibia
     direction -0.34202 -0.939693 0   
     length 7.54266   
     axis 0 0 -20   XYZ
    dof rx
    limits (-10.0 170.0)
 end
 begin
     id 9 
     name rfoot
     direction -0.114017 -0.31326 0.942798   
     length 2.34212  
     axis -90 -7.62852e-016 -20   XYZ
    dof rx rz
    limits (-45.0 90.0)
           (-20.0 70.0)
  end
  begin
     id 10 
     name rtoes
     direction -1.53557e-011 -4.21867e-011 1   
     length 1.16246   
     axis -90 -7.62852e-016 -20   XYZ
    dof rx
    limits (-90.0 20.0)
  end
  begin
     id 11 
     name lowerback
     direction -0.0228371 0.999155 -0.034167   
     length 2.0537   
     axis 0 0 0   XYZ
    dof rx ry rz
    limits (-20.0 45.0)
           (-30.0 30.0)
           (-30.0 30.0)
  end
  begin
     id 12 
     name upperback
     direction 0.0198981 0.999794 0.00389455   
     length 2.05302   
     axis 0 0 0   XYZ
    dof rx ry rz
    limits (-20.0 45.0)
           (-30.0 30.0)
           (-30.0 30.0)
  end
  begin
     id 13 
     name thorax
     direction 0.0304566 0.99935 0.0192987   
     length 2.05315   
     axis 0 0 0   XYZ
    dof rx ry rz
    limits (-20.0 45.0)
           (-30.0 30.0)
           (-30.0 30.0)
  end
  begin
     id 14 
     name lowerneck
     direction -0.0196762 0.99417 0.106017   
     length 1.82056   
     axis 0 0 0   XYZ
    dof rx ry rz
    limits (-20.0 45.0)
           (-30.0 30.0)
           (-30.0 30.0)
  end
  begin
     id 15 
     name upperneck
     direction 0.00517787 0.9802 -0.197944   
     length 1.83835   
     axis 0 0 0   XYZ
    dof rx ry rz
    limits (-20.0 45.0)
           (-30.0 30.0)
           (-30.0 30.0)
  end
  begin
     id 16
     name head
     direction 0.00211419 0.996945 -0.078081  
     length 1.85629  
     axis 0 0 0   XYZ
    dof rx ry rz
    limits (-20.0 45.0)
           (-30.0 30.0)
           (-30.0 30.0)
  end
  begin
     id 17 
     name lclavicle
     direction 0.930001 0.365811 -0.0357824  
     length 3.81961  
     axis 0 0 0   XYZ
    dof ry rz
    limits (-20.0 10.0)
           (0.0 20.0)
  end
  begin
     id 18 
     name lhumerus
     direction 1 -4.48968e-011 -3.06644e-027   
     length 5.14507   
     axis 180 -30 -90   XYZ
    dof rx ry rz
    limits (-60.0 90.0)
           (-90.0 90.0)
           (-90.0 90.0)
  end
  begin
     id 19
     name lradius
     direction 1 -4.48965e-011 9.06925e-028   
     length 3.50646   
     axis 180 -30 -90   XYZ
    dof rx
    limits (-10.0 170.0)
  end
  begin
     id 20
     name lwrist
     direction 1 -4.48957e-011 1.03922e-027   
     length 1.75323   
     axis -2.56395e-016 90 90   XYZ
    dof ry
    limits (-180.0 0.0)
 end
  begin
     id 21 
     name lhand
     direction 1 -4.48967e-011 2.08017e-027   
     length 0.629969   
     axis -1.32723e-015 90 90   XYZ
    dof rx rz
    limits (-90.0 90.0)
           (-45.0 45.0)
  end
  begin
     id 22 
     name lfingers
     direction 1 -4.49089e-011 4.20095e-027   
     length 0.507897   
     axis -2.6545e-015 90 90   XYZ
    dof rx
    limits (0.0 90.0)
  end
  begin
     id 23
     name lthumb
     direction 0.707107 -6.35001e-011 0.707107   
     length 0.729241   
     axis -90 45 5.05613e-014   XYZ
    dof rx rz
    limits (-45.0 45.0)
           (-45.0 45.0)
  end
  begin
     id 24 
     name rclavicle
     direction -0.881882 0.464123 -0.0829113   
     length 3.47515  
     axis 0 0 0   XYZ 
    dof ry rz
    limits (-10.0 20.0)
           (-20.0 0.0)
  end
  begin
     id 25 
     name rhumerus
     direction -1 -4.48961e-011 -1.55672e-027  
     length 5.232   
     axis 180 30 90   XYZ
    dof rx ry rz
    limits (-90.0 60.0)
           (-90.0 90.0)
           (-90.0 90.0)
  end
  begin
     id 26 
     name rradius
     direction -1 -4.48963e-011 6.18178e-029   
     length 3.65641   
     axis 180 30 90   XYZ
    dof rx
    limits (-10.0 170.0)
  end
  begin
     id 27 
     name rwrist
     direction -1 -4.48982e-011 1.04136e-027   
     length 1.8282   
     axis -2.56395e-016 -90 -90   XYZ
    dof ry
    limits (-180.0 0.0)
  end
  begin
     id 28
     name rhand
     direction -1 -4.48929e-011 2.07378e-027   
     length 0.656807   
     axis -1.32723e-015 -90 -90   XYZ
    dof rx rz
    limits (-90.0 90.0)
           (-45.0 45.0)
  end
  begin
     id 29
     name rfingers
     direction -1 -4.489e-011 4.13816e-027   
     length 0.529535   
     axis -2.6545e-015 -90 -90   XYZ
    dof rx
    limits (0.0 90.0)
  end
  begin
     id 30
     name rthumb
     direction -0.707107 -6.34843e-011 0.707107   
     length 0.760309   
     axis -90 -45 -5.05613e-014   XYZ
    dof rx rz
    limits (-45.0 45.0)
           (-45.0 45.0)
  end
:hierarchy
  begin
    root lhipjoint rhipjoint lowerback
    lhipjoint lfemur
    lfemur ltibia
    ltibia lfoot
    lfoot ltoes
    rhipjoint rfemur
    rfemur rtibia
    rtibia rfoot
    rfoot rtoes
    lowerback upperback
    upperback thorax
    thorax lowerneck lclavicle rclavicle
    lowerneck upperneck
    upperneck head
    lclavicle lhumerus
    lhumerus lradius
    lradius lwrist
    lwrist lhand lthumb
    lhand lfingers
    rclavicle rhumerus
    rhumerus rradius
    rradius rwrist
    rwrist rhand rthumb
    rhand rfingers
  end

#!OML:ASF H:\ManfredETheater\Project 1\Capture day 1\Session 1\subject.ASF
:FULLY-SPECIFIED
:DEGREES
17
root -0.911485 15.7375 -48.6514 20.0871 -17.6793 -11.0435
lowerback 14.3719 2.67301 12.4046
upperback -1.81268 6.06025 3.40025
thorax -9.21089 2.33668 -4.53589
lowerneck -19.9675 0.695304 0.298903
upperneck 6.89631 1.42784 -4.81887
head 5.32666 0.327229 -1.43799
rclavicle 5.94366e-014 4.29375e-014
rhumerus -34.1178 21.8124 -100.185
rradius 72.8318
rwrist 2.45929
rhand -14.7015 -8.71894
rfingers 7.12502
rthumb 11.4526 -38.3861
lclavicle 5.94366e-014 4.29375e-014
lhumerus -49.3226 -8.41522 90.7665
lradius 68.3426
lwrist 3.39806
lhand -26.2009 -4.45026
lfingers 7.12502
lthumb 0.351671 25.5292
rfemur 10.2758 -0.440292 26.547
rtibia 24.0015
rfoot -30.1135 -0.17591
rtoes -21.1422
lfemur -75.8614 16.0221 -16.9597
ltibia 76.7771
lfoot -9.87772 -5.72016
ltoes -6.40928
18
root -0.936737 15.7066 -48.3793 20.5274 -17.4618 -10.9838
lowerback 14.1336 2.73316 12.1857
upperback -2.07867 6.07998 3.21071
thorax -9.36662 2.33537 -4.61735
lowerneck -20.0153 0.638442 0.273525
upperneck 7.0145 1.34093 -4.62675
head 5.36674 0.296706 -1.38198
rclavicle -1.45113e-014 3.65764e-014
rhumerus -34.7978 22.6217 -100.836
rradius 75.4838
rwrist 2.486
rhand -15.0256 -8.05065
rfingers 7.12502
rthumb 11.1401 -37.7349
lclavicle -1.45113e-014 3.65764e-014
lhumerus -50.809 -8.81093 90.6198
lradius 69.5803
lwrist 3.62175
lhand -26.2218 -4.65837
lfingers 7.12502
lthumb 0.331487 25.3211
rfemur 11.3243 -0.133384 26.2904
rtibia 22.6719
rfoot -28.6684 0.342616
rtoes -21.4193
lfemur -76.0522 16.0401 -17.5902
ltibia 78.2073
lfoot -10.3255 -6.19188
ltoes -3.95101
19
root -0.961886 15.6815 -48.0989 20.9923 -17.2095 -10.9025
lowerback 13.8608 2.79392 11.9632
upperback -2.36017 6.09514 3.00751
thorax -9.51893 2.33183 -4.70854
lowerneck -20.0819 0.569753 0.257525
upperneck 7.15115 1.23711 -4.44108
head 5.41562 0.257406 -1.33138
rclavicle -4.8901e-014 3.49861e-014
rhumerus -35.5247 23.2884 -101.389
rradius 77.9534
rwrist 2.60165
rhand -15.4203 -7.60928
rfingers 7.12502
rthumb 10.7594 -37.3137
lclavicle -4.8901e-014 3.49861e-014
lhumerus -52.2165 -9.1759 90.4781
lradius 70.6797
lwrist 3.91584
lhand -26.1444 -4.86111
lfingers 7.12502
lthumb 0.406239 25.1182
rfemur 12.2459 0.195161 26.0355
rtibia 21.4807
rfoot -26.9118 0.769632
rtoes -21.893
lfemur -76.0897 16.0154 -18.2205
ltibia 79.5053
lfoot -11.1247 -6.51719
ltoes -1.82747
20
root -0.986801 15.6621 -47.8104 21.4817 -16.9097 -10.8108
lowerback 13.5451 2.85065 11.7418
upperback -2.64859 6.09938 2.803
thorax -9.65513 2.32427 -4.79635
lowerneck -20.1641 0.492032 0.243259
upperneck 7.29323 1.12068 -4.25583
head 5.46867 0.211969 -1.28258
rclavicle 7.61345e-014 2.38542e-014
rhumerus -36.2875 23.7977 -101.824
rradius 80.2002
rwrist 2.80122
rhand -15.8698 -7.23445
rfingers 7.12502
rthumb 10.3258 -36.961
lclavicle 7.61345e-014 2.38542e-014
lhumerus -53.5115 -9.48054 90.3394
lradius 71.6097
lwrist 4.22369
lhand -25.9774 -5.12403
lfingers 7.12502
lthumb 0.5676 24.855
rfemur 12.9964 0.540362 25.7974
rtibia 20.4939
rfoot -24.8185 1.09712
rtoes -22.7028
lfemur -75.9612 15.9378 -18.8093
ltibia 80.6421
lfoot -12.2763 -6.69561
ltoes -0.218157
21
root -1.01166 15.6481 -47.5144 21.9877 -16.5556 -10.7253
lowerback 13.1978 2.89751 11.5439
upperback -2.93812 6.09007 2.59688
thorax -9.77361 2.31026 -4.89357
lowerneck -20.2582 0.406884 0.23072
upperneck 7.4332 0.990983 -4.05183
head 5.52275 0.161823 -1.2295
rclavicle 3.29983e-014 3.45885e-014
rhumerus -37.0779 24.1205 -102.145
rradius 82.1858
rwrist 3.07329
rhand -16.34 -6.90285
rfingers 7.12502
rthumb 9.87215 -36.6514
lclavicle 3.29983e-014 3.45885e-014
lhumerus -54.676 -9.71684 90.1868
lradius 72.3665
lwrist 4.48641
lhand -25.7522 -5.3989
lfingers 7.12502
lthumb 0.785033 24.5794
rfemur 13.5309 0.870261 25.592
rtibia 19.7772
rfoot -22.3425 1.28377
rtoes -23.7831
lfemur -75.652 15.8072 -19.3093
ltibia 81.5896
lfoot -13.7344 -6.73979
ltoes 0.786943
